<svg width="218" height="44" viewBox="0 0 218 44" fill="none" xmlns="http://www.w3.org/2000/svg">
<path fill-rule="evenodd" clip-rule="evenodd" d="M10.2392 7.0031C7.62245 9.96008 5.46263 15.2055 4.30297 19.2942C3.93775 20.5819 2.70131 21.2972 1.54131 20.8917C0.381306 20.4863 -0.26299 19.1137 0.102234 17.826C1.33222 13.4893 3.74947 7.36036 7.09758 3.57699C8.78461 1.67065 10.959 0.0792971 13.5542 0.00287641C16.2208 -0.0756511 18.7115 1.456 20.9575 4.31553C22.3226 6.05369 23.2491 7.77402 23.5685 9.52207C23.9095 11.3891 23.5139 13.049 22.653 14.4252C21.8513 15.7068 20.6922 16.6746 19.5584 17.4432C18.409 18.2224 17.0966 18.919 15.8556 19.5652C15.7602 19.6148 15.6653 19.6642 15.5709 19.7133C13.0557 21.0218 10.9029 22.1418 9.52899 23.587C8.86897 24.2812 8.50641 24.9397 8.35663 25.6037C8.21008 26.2533 8.2113 27.1542 8.66656 28.4538C9.57869 31.0578 11.8621 33.5485 15.0568 35.5125C18.2133 37.4531 21.9958 38.7107 25.4765 39.0307C29.0314 39.3574 31.8701 38.6773 33.4965 37.2839C34.2642 36.6262 34.7917 35.7911 35.0503 34.7061C35.3164 33.5899 35.3324 32.0559 34.8208 29.9867C33.8638 26.1166 31.749 24.2708 29.3122 23.5093C26.7349 22.7038 23.6676 23.0943 21.14 24.1476C19.8895 24.6686 18.8691 25.3126 18.1712 25.9448C17.8242 26.259 17.5906 26.54 17.4465 26.7645C17.386 26.8586 17.3474 26.9331 17.323 26.9877C17.3594 27.0241 17.4134 27.0727 17.4919 27.1342C18.0033 27.5349 19.1323 28.0584 21.2728 28.4082C22.4759 28.6048 23.3077 29.8469 23.1306 31.1826C22.9535 32.5182 21.8346 33.4416 20.6314 33.2449C18.2223 32.8513 16.2925 32.1784 14.9524 31.1285C13.4972 29.9884 12.6249 28.2661 12.946 26.2486C13.2203 24.5249 14.2957 23.1453 15.3868 22.1569C16.5339 21.1178 17.9994 20.2343 19.5923 19.5705C22.7516 18.2541 26.8015 17.6457 30.5056 18.8033C34.3503 20.0048 37.681 23.0843 39.0677 28.6927C39.728 31.3629 39.8216 33.8015 39.3078 35.9567C38.7867 38.143 37.677 39.8779 36.1872 41.1543C33.2985 43.629 29.1407 44.2731 25.1131 43.9029C21.0113 43.5259 16.6254 42.0654 12.9231 39.7894C9.25911 37.5368 5.99348 34.3124 4.56193 30.2256C3.84534 28.1799 3.67423 26.2348 4.08452 24.4161C4.49158 22.6116 5.41504 21.1793 6.49986 20.0382C8.41472 18.024 11.1874 16.5883 13.4629 15.41C13.6403 15.3181 13.8147 15.2278 13.9855 15.1389C15.2433 14.4841 16.3478 13.8913 17.2631 13.2708C18.194 12.6397 18.7474 12.0975 19.0357 11.6366C19.2648 11.2704 19.3367 10.9556 19.2523 10.4937C19.1461 9.91272 18.7543 8.94976 17.638 7.52838C15.9134 5.33264 14.5807 4.86326 13.6709 4.89005C12.6896 4.91894 11.5347 5.53927 10.2392 7.0031ZM17.2543 26.9036C17.2556 26.9037 17.2614 26.9114 17.2679 26.9262C17.2563 26.9109 17.253 26.9035 17.2543 26.9036Z" fill="#111111"/>
<path d="M56.3209 31.5845C55.9663 31.5845 55.6676 31.4631 55.4249 31.2205C55.1823 30.9778 55.0609 30.6791 55.0609 30.3245V18.3125C55.0609 17.9578 55.1823 17.6591 55.4249 17.4165C55.6676 17.1551 55.9663 17.0245 56.3209 17.0245C56.6756 17.0245 56.9743 17.1551 57.2169 17.4165C57.4783 17.6591 57.6089 17.9578 57.6089 18.3125V19.4605C58.3183 18.6765 59.0836 18.0511 59.9049 17.5845C60.7263 17.1178 61.6969 16.8845 62.8169 16.8845C63.8436 16.8845 64.7303 17.1271 65.4769 17.6125C66.2423 18.0978 66.8209 18.7605 67.2129 19.6005C67.6236 20.4405 67.8289 21.3645 67.8289 22.3725V30.3245C67.8289 30.6791 67.6983 30.9778 67.4369 31.2205C67.1943 31.4631 66.8956 31.5845 66.5409 31.5845C66.1863 31.5845 65.8876 31.4631 65.6449 31.2205C65.4023 30.9778 65.2809 30.6791 65.2809 30.3245V22.6525C65.2809 20.3751 64.2543 19.2365 62.2009 19.2365C61.2676 19.2365 60.4276 19.4791 59.6809 19.9645C58.9529 20.4498 58.2623 21.1031 57.6089 21.9245V30.3245C57.6089 30.6791 57.4783 30.9778 57.2169 31.2205C56.9743 31.4631 56.6756 31.5845 56.3209 31.5845ZM75.492 31.5845C75.1373 31.5845 74.8386 31.4631 74.596 31.2205C74.3533 30.9778 74.232 30.6791 74.232 30.3245V19.3485H72.58C72.2813 19.3485 72.02 19.2458 71.796 19.0405C71.5906 18.8165 71.488 18.5551 71.488 18.2565C71.488 17.9391 71.5906 17.6778 71.796 17.4725C72.02 17.2671 72.2813 17.1645 72.58 17.1645H74.232V15.5405C74.232 14.4205 74.428 13.5058 74.82 12.7965C75.2306 12.0685 75.7533 11.5458 76.388 11.2285C77.0413 10.8925 77.7226 10.7245 78.432 10.7245C79.3093 10.7245 80.1213 10.9111 80.868 11.2845C81.0546 11.3778 81.204 11.5178 81.316 11.7045C81.4466 11.8725 81.512 12.0591 81.512 12.2645C81.512 12.5445 81.4093 12.7965 81.204 13.0205C80.9986 13.2258 80.756 13.3285 80.476 13.3285C80.2706 13.3285 80.056 13.3005 79.832 13.2445C79.384 13.1885 79.132 13.1605 79.076 13.1605C78.3106 13.1605 77.732 13.3378 77.34 13.6925C76.9666 14.0471 76.78 14.6911 76.78 15.6245V17.1645H80.28C80.5973 17.1645 80.8586 17.2671 81.064 17.4725C81.2693 17.6778 81.372 17.9391 81.372 18.2565C81.372 18.5551 81.2693 18.8165 81.064 19.0405C80.8586 19.2458 80.5973 19.3485 80.28 19.3485H76.78V30.3245C76.78 30.6791 76.6493 30.9778 76.388 31.2205C76.1453 31.4631 75.8466 31.5845 75.492 31.5845ZM89.9139 31.7245C87.1886 31.7245 85.8259 30.4925 85.8259 28.0285V19.3485H83.8379C83.6886 19.3485 83.5579 19.3018 83.4459 19.2085C83.3526 19.0965 83.3059 18.9658 83.3059 18.8165C83.3059 18.6298 83.3899 18.4711 83.5579 18.3405L87.3659 14.6165C87.5339 14.4485 87.6926 14.3645 87.8419 14.3645C87.9913 14.3645 88.1126 14.4205 88.2059 14.5325C88.3179 14.6445 88.3739 14.7751 88.3739 14.9245V17.1645H91.5379C91.8553 17.1645 92.1166 17.2671 92.3219 17.4725C92.5273 17.6778 92.6299 17.9391 92.6299 18.2565C92.6299 18.5551 92.5273 18.8165 92.3219 19.0405C92.1166 19.2458 91.8553 19.3485 91.5379 19.3485H88.3739V27.8045C88.3739 28.5325 88.5419 28.9991 88.8779 29.2045C89.2326 29.3911 89.6713 29.4845 90.1939 29.4845C90.5673 29.4845 90.9406 29.4285 91.3139 29.3165C91.3886 29.2978 91.4633 29.2791 91.5379 29.2605C91.6313 29.2418 91.7433 29.2325 91.8739 29.2325C92.1353 29.2325 92.3686 29.3351 92.5739 29.5405C92.7793 29.7271 92.8819 29.9605 92.8819 30.2405C92.8819 30.6698 92.6673 30.9965 92.2379 31.2205C91.5099 31.5565 90.7353 31.7245 89.9139 31.7245ZM98.3373 31.5845C97.9827 31.5845 97.684 31.4631 97.4413 31.2205C97.1987 30.9778 97.0773 30.6791 97.0773 30.3245V12.1525C97.0773 11.7978 97.1987 11.4991 97.4413 11.2565C97.684 10.9951 97.9827 10.8645 98.3373 10.8645C98.7107 10.8645 99.0187 10.9858 99.2613 11.2285C99.504 11.4711 99.6253 11.7791 99.6253 12.1525V30.3245C99.6253 30.6791 99.4947 30.9778 99.2333 31.2205C98.9907 31.4631 98.692 31.5845 98.3373 31.5845ZM109.09 31.7245C108.269 31.7245 107.503 31.5565 106.794 31.2205C106.103 30.8845 105.553 30.3991 105.142 29.7645C104.731 29.1111 104.526 28.3645 104.526 27.5245C104.526 26.1431 105.067 25.0418 106.15 24.2205C107.251 23.3991 108.857 22.9885 110.966 22.9885H114.354V22.7645C114.354 21.5325 114.046 20.6458 113.43 20.1045C112.833 19.5631 111.89 19.2925 110.602 19.2925C109.893 19.2925 109.258 19.3485 108.698 19.4605C108.157 19.5725 107.55 19.7405 106.878 19.9645C106.729 20.0018 106.607 20.0205 106.514 20.0205C106.234 20.0205 105.991 19.9178 105.786 19.7125C105.581 19.5071 105.478 19.2551 105.478 18.9565C105.478 18.4525 105.721 18.0978 106.206 17.8925C107.793 17.2205 109.407 16.8845 111.05 16.8845C112.338 16.8845 113.421 17.1458 114.298 17.6685C115.194 18.1911 115.847 18.8725 116.258 19.7125C116.687 20.5338 116.902 21.4298 116.902 22.4005V30.3245C116.902 30.6791 116.771 30.9778 116.51 31.2205C116.267 31.4631 115.969 31.5845 115.614 31.5845C115.259 31.5845 114.961 31.4631 114.718 31.2205C114.475 30.9778 114.354 30.6791 114.354 30.3245V29.5965C112.973 31.0151 111.218 31.7245 109.09 31.7245ZM110.042 29.4845C110.863 29.4845 111.657 29.2885 112.422 28.8965C113.187 28.4858 113.831 27.9818 114.354 27.3845V25.0325H111.302C108.483 25.0325 107.074 25.7698 107.074 27.2445C107.074 27.9165 107.298 28.4578 107.746 28.8685C108.213 29.2791 108.978 29.4845 110.042 29.4845ZM123.833 31.5845C123.478 31.5845 123.179 31.4631 122.937 31.2205C122.694 30.9778 122.573 30.6791 122.573 30.3245V18.3125C122.573 17.9578 122.694 17.6591 122.937 17.4165C123.179 17.1551 123.478 17.0245 123.833 17.0245C124.187 17.0245 124.486 17.1551 124.729 17.4165C124.99 17.6591 125.121 17.9578 125.121 18.3125V19.4605C125.83 18.6765 126.595 18.0511 127.417 17.5845C128.238 17.1178 129.209 16.8845 130.329 16.8845C131.355 16.8845 132.242 17.1271 132.989 17.6125C133.754 18.0978 134.333 18.7605 134.725 19.6005C135.135 20.4405 135.341 21.3645 135.341 22.3725V30.3245C135.341 30.6791 135.21 30.9778 134.949 31.2205C134.706 31.4631 134.407 31.5845 134.053 31.5845C133.698 31.5845 133.399 31.4631 133.157 31.2205C132.914 30.9778 132.793 30.6791 132.793 30.3245V22.6525C132.793 20.3751 131.766 19.2365 129.713 19.2365C128.779 19.2365 127.939 19.4791 127.193 19.9645C126.465 20.4498 125.774 21.1031 125.121 21.9245V30.3245C125.121 30.6791 124.99 30.9778 124.729 31.2205C124.486 31.4631 124.187 31.5845 123.833 31.5845ZM146.943 31.7245C145.786 31.7245 144.684 31.4351 143.639 30.8565C142.612 30.2591 141.772 29.4005 141.119 28.2805C140.484 27.1418 140.167 25.8165 140.167 24.3045C140.167 22.7925 140.484 21.4765 141.119 20.3565C141.772 19.2178 142.612 18.3591 143.639 17.7805C144.684 17.1831 145.786 16.8845 146.943 16.8845C148.772 16.8845 150.368 17.5938 151.731 19.0125V12.1525C151.731 11.7791 151.852 11.4711 152.095 11.2285C152.356 10.9858 152.664 10.8645 153.019 10.8645C153.374 10.8645 153.672 10.9951 153.915 11.2565C154.158 11.4991 154.279 11.7978 154.279 12.1525V30.3245C154.279 30.6791 154.158 30.9778 153.915 31.2205C153.672 31.4631 153.374 31.5845 153.019 31.5845C152.664 31.5845 152.356 31.4631 152.095 31.2205C151.852 30.9778 151.731 30.6791 151.731 30.3245V29.5965C150.368 31.0151 148.772 31.7245 146.943 31.7245ZM147.307 29.3445C148.166 29.3445 148.968 29.1578 149.715 28.7845C150.48 28.3925 151.152 27.8791 151.731 27.2445V21.3645C151.152 20.7298 150.48 20.2258 149.715 19.8525C148.968 19.4605 148.166 19.2645 147.307 19.2645C145.926 19.2645 144.815 19.7031 143.975 20.5805C143.135 21.4578 142.715 22.6991 142.715 24.3045C142.715 25.9098 143.135 27.1511 143.975 28.0285C144.815 28.9058 145.926 29.3445 147.307 29.3445ZM161.303 14.2525C160.911 14.2525 160.575 14.1125 160.295 13.8325C160.015 13.5525 159.875 13.2165 159.875 12.8245V12.7125C159.875 12.3205 160.015 11.9845 160.295 11.7045C160.575 11.4245 160.911 11.2845 161.303 11.2845H161.471C161.863 11.2845 162.199 11.4245 162.479 11.7045C162.759 11.9845 162.899 12.3205 162.899 12.7125V12.8245C162.899 13.2165 162.759 13.5525 162.479 13.8325C162.199 14.1125 161.863 14.2525 161.471 14.2525H161.303ZM161.359 31.5845C161.005 31.5845 160.706 31.4631 160.463 31.2205C160.221 30.9778 160.099 30.6791 160.099 30.3245V18.3125C160.099 17.9578 160.221 17.6591 160.463 17.4165C160.706 17.1551 161.005 17.0245 161.359 17.0245C161.733 17.0245 162.041 17.1458 162.283 17.3885C162.526 17.6311 162.647 17.9391 162.647 18.3125V30.3245C162.647 30.6791 162.517 30.9778 162.255 31.2205C162.013 31.4631 161.714 31.5845 161.359 31.5845ZM169.732 31.5845C169.377 31.5845 169.079 31.4631 168.836 31.2205C168.593 30.9778 168.472 30.6791 168.472 30.3245V18.3125C168.472 17.9578 168.593 17.6591 168.836 17.4165C169.079 17.1551 169.377 17.0245 169.732 17.0245C170.087 17.0245 170.385 17.1551 170.628 17.4165C170.889 17.6591 171.02 17.9578 171.02 18.3125V19.4605C171.729 18.6765 172.495 18.0511 173.316 17.5845C174.137 17.1178 175.108 16.8845 176.228 16.8845C177.255 16.8845 178.141 17.1271 178.888 17.6125C179.653 18.0978 180.232 18.7605 180.624 19.6005C181.035 20.4405 181.24 21.3645 181.24 22.3725V30.3245C181.24 30.6791 181.109 30.9778 180.848 31.2205C180.605 31.4631 180.307 31.5845 179.952 31.5845C179.597 31.5845 179.299 31.4631 179.056 31.2205C178.813 30.9778 178.692 30.6791 178.692 30.3245V22.6525C178.692 20.3751 177.665 19.2365 175.612 19.2365C174.679 19.2365 173.839 19.4791 173.092 19.9645C172.364 20.4498 171.673 21.1031 171.02 21.9245V30.3245C171.02 30.6791 170.889 30.9778 170.628 31.2205C170.385 31.4631 170.087 31.5845 169.732 31.5845ZM193.598 38.1645C192.516 38.1645 191.424 38.0245 190.322 37.7445C189.221 37.4645 188.316 37.1191 187.606 36.7085C187.27 36.5031 187.102 36.1765 187.102 35.7285C187.102 35.4298 187.205 35.1591 187.41 34.9165C187.634 34.6925 187.905 34.5805 188.222 34.5805C188.372 34.5805 188.54 34.6178 188.726 34.6925C190.145 35.4018 191.685 35.7565 193.346 35.7565C196.202 35.7565 197.63 34.2351 197.63 31.1925V29.3165C196.305 30.7351 194.709 31.4445 192.842 31.4445C191.741 31.4445 190.668 31.1738 189.622 30.6325C188.596 30.0725 187.746 29.2511 187.074 28.1685C186.402 27.0671 186.066 25.7325 186.066 24.1645C186.066 22.5965 186.402 21.2711 187.074 20.1885C187.746 19.0871 188.596 18.2658 189.622 17.7245C190.668 17.1645 191.741 16.8845 192.842 16.8845C194.709 16.8845 196.305 17.5938 197.63 19.0125V18.3125C197.63 17.9578 197.752 17.6591 197.994 17.4165C198.237 17.1551 198.536 17.0245 198.89 17.0245C199.245 17.0245 199.544 17.1551 199.786 17.4165C200.048 17.6591 200.178 17.9578 200.178 18.3125V30.8285C200.178 33.1805 199.609 34.9911 198.47 36.2605C197.332 37.5298 195.708 38.1645 193.598 38.1645ZM193.374 29.1205C194.252 29.1205 195.026 28.9338 195.698 28.5605C196.37 28.1871 197.014 27.6831 197.63 27.0485V21.2805C197.014 20.6458 196.37 20.1418 195.698 19.7685C195.026 19.3951 194.252 19.2085 193.374 19.2085C191.974 19.2085 190.826 19.6378 189.93 20.4965C189.053 21.3365 188.614 22.5591 188.614 24.1645C188.614 25.7698 189.053 27.0018 189.93 27.8605C190.826 28.7005 191.974 29.1205 193.374 29.1205Z" fill="#111111"/>
<path d="M55.4249 31.2205L56.132 30.5134H56.132L55.4249 31.2205ZM55.4249 17.4165L56.132 18.1236L56.1451 18.1105L56.1577 18.0969L55.4249 17.4165ZM57.2169 17.4165L56.4841 18.0969L56.5093 18.124L56.5365 18.1493L57.2169 17.4165ZM57.6089 19.4605H56.6089V22.0562L58.3505 20.1314L57.6089 19.4605ZM59.9049 17.5845L60.3989 18.4539L59.9049 17.5845ZM65.4769 17.6125L64.9319 18.451L64.9414 18.457L65.4769 17.6125ZM67.2129 19.6005L66.3068 20.0233L66.3106 20.0315L66.3146 20.0397L67.2129 19.6005ZM67.4369 31.2205L66.7565 30.4877L66.7429 30.5003L66.7298 30.5134L67.4369 31.2205ZM65.6449 31.2205L64.9378 31.9276H64.9378L65.6449 31.2205ZM59.6809 19.9645L59.1359 19.126L59.1262 19.1324L59.6809 19.9645ZM57.6089 21.9245L56.8263 21.3019L56.6089 21.5752V21.9245H57.6089ZM57.2169 31.2205L56.5365 30.4877L56.5229 30.5003L56.5098 30.5134L57.2169 31.2205ZM56.3209 30.5845C56.2216 30.5845 56.1803 30.5616 56.132 30.5134L54.7178 31.9276C55.1549 32.3647 55.711 32.5845 56.3209 32.5845V30.5845ZM56.132 30.5134C56.0838 30.4651 56.0609 30.4238 56.0609 30.3245H54.0609C54.0609 30.9344 54.2807 31.4905 54.7178 31.9276L56.132 30.5134ZM56.0609 30.3245V18.3125H54.0609V30.3245H56.0609ZM56.0609 18.3125C56.0609 18.2131 56.0838 18.1718 56.132 18.1236L54.7178 16.7094C54.2807 17.1465 54.0609 17.7025 54.0609 18.3125H56.0609ZM56.1577 18.0969C56.2124 18.0381 56.2461 18.0245 56.3209 18.0245V16.0245C55.6865 16.0245 55.1228 16.2722 54.6921 16.736L56.1577 18.0969ZM56.3209 18.0245C56.3958 18.0245 56.4295 18.0381 56.4841 18.0969L57.9497 16.736C57.519 16.2722 56.9554 16.0245 56.3209 16.0245V18.0245ZM56.5365 18.1493C56.5953 18.2039 56.6089 18.2376 56.6089 18.3125H58.6089C58.6089 17.678 58.3612 17.1144 57.8974 16.6837L56.5365 18.1493ZM56.6089 18.3125V19.4605H58.6089V18.3125H56.6089ZM58.3505 20.1314C58.9968 19.417 59.6805 18.8621 60.3989 18.4539L59.4109 16.715C58.4867 17.2401 57.6397 17.9359 56.8674 18.7895L58.3505 20.1314ZM60.3989 18.4539C61.0439 18.0874 61.8379 17.8845 62.8169 17.8845V15.8845C61.556 15.8845 60.4086 16.1481 59.4109 16.715L60.3989 18.4539ZM62.8169 17.8845C63.6804 17.8845 64.3712 18.0864 64.932 18.4509L66.0219 16.774C65.0894 16.1679 64.0068 15.8845 62.8169 15.8845V17.8845ZM64.9414 18.457C65.5416 18.8376 65.9936 19.3522 66.3068 20.0233L68.1191 19.1776C67.6483 18.1687 66.9429 17.358 66.0125 16.7679L64.9414 18.457ZM66.3146 20.0397C66.6532 20.7324 66.8289 21.5046 66.8289 22.3725H68.8289C68.8289 21.2243 68.594 20.1485 68.1113 19.1612L66.3146 20.0397ZM66.8289 22.3725V30.3245H68.8289V22.3725H66.8289ZM66.8289 30.3245C66.8289 30.3993 66.8153 30.433 66.7565 30.4877L68.1174 31.9533C68.5812 31.5226 68.8289 30.9589 68.8289 30.3245H66.8289ZM66.7298 30.5134C66.6816 30.5616 66.6403 30.5845 66.5409 30.5845V32.5845C67.1509 32.5845 67.7069 32.3647 68.144 31.9276L66.7298 30.5134ZM66.5409 30.5845C66.4416 30.5845 66.4003 30.5616 66.352 30.5134L64.9378 31.9276C65.3749 32.3647 65.931 32.5845 66.5409 32.5845V30.5845ZM66.352 30.5134C66.3038 30.4651 66.2809 30.4238 66.2809 30.3245H64.2809C64.2809 30.9344 64.5007 31.4905 64.9378 31.9276L66.352 30.5134ZM66.2809 30.3245V22.6525H64.2809V30.3245H66.2809ZM66.2809 22.6525C66.2809 21.3837 65.9972 20.2455 65.2536 19.4208C64.4923 18.5765 63.41 18.2365 62.2009 18.2365V20.2365C63.0452 20.2365 63.5029 20.4658 63.7683 20.7601C64.0513 21.0741 64.2809 21.6438 64.2809 22.6525H66.2809ZM62.2009 18.2365C61.0839 18.2365 60.0528 18.53 59.136 19.126L60.2259 20.8029C60.8024 20.4282 61.4513 20.2365 62.2009 20.2365V18.2365ZM59.1262 19.1324C58.2966 19.6855 57.5318 20.415 56.8263 21.3019L58.3915 22.547C58.9927 21.7912 59.6093 21.2141 60.2356 20.7965L59.1262 19.1324ZM56.6089 21.9245V30.3245H58.6089V21.9245H56.6089ZM56.6089 30.3245C56.6089 30.3993 56.5953 30.433 56.5365 30.4877L57.8974 31.9533C58.3612 31.5226 58.6089 30.9589 58.6089 30.3245H56.6089ZM56.5098 30.5134C56.4616 30.5616 56.4203 30.5845 56.3209 30.5845V32.5845C56.9309 32.5845 57.4869 32.3647 57.924 31.9276L56.5098 30.5134ZM74.596 31.2205L75.3031 30.5134L74.596 31.2205ZM74.232 19.3485H75.232V18.3485H74.232V19.3485ZM71.796 19.0405L71.0588 19.7162L71.0882 19.7482L71.1202 19.7776L71.796 19.0405ZM71.796 17.4725L71.1202 16.7353L71.1042 16.75L71.0889 16.7654L71.796 17.4725ZM74.232 17.1645V18.1645H75.232V17.1645H74.232ZM74.82 12.7965L73.949 12.3051L73.9447 12.3128L74.82 12.7965ZM76.388 11.2285L76.8352 12.1229L76.8453 12.1177L76.388 11.2285ZM80.868 11.2845L80.4208 12.1789L80.4208 12.1789L80.868 11.2845ZM81.316 11.7045L80.4585 12.219L80.4895 12.2707L80.5266 12.3184L81.316 11.7045ZM81.204 13.0205L81.9111 13.7276L81.9264 13.7122L81.9411 13.6962L81.204 13.0205ZM79.832 13.2445L80.0745 12.2743L80.0159 12.2597L79.956 12.2522L79.832 13.2445ZM77.34 13.6925L76.6691 12.9509L76.66 12.9591L76.6512 12.9675L77.34 13.6925ZM76.78 17.1645H75.78V18.1645H76.78V17.1645ZM81.064 17.4725L80.3569 18.1796L80.3569 18.1796L81.064 17.4725ZM81.064 19.0405L81.7711 19.7476L81.7864 19.7322L81.8011 19.7162L81.064 19.0405ZM76.78 19.3485V18.3485H75.78V19.3485H76.78ZM76.388 31.2205L75.7075 30.4877L75.694 30.5003L75.6809 30.5134L76.388 31.2205ZM75.492 30.5845C75.3926 30.5845 75.3513 30.5616 75.3031 30.5134L73.8889 31.9276C74.326 32.3647 74.882 32.5845 75.492 32.5845V30.5845ZM75.3031 30.5134C75.2548 30.4651 75.232 30.4238 75.232 30.3245H73.232C73.232 30.9344 73.4518 31.4905 73.8889 31.9276L75.3031 30.5134ZM75.232 30.3245V19.3485H73.232V30.3245H75.232ZM74.232 18.3485H72.58V20.3485H74.232V18.3485ZM72.58 18.3485C72.5363 18.3485 72.5148 18.3428 72.4717 18.3033L71.1202 19.7776C71.5251 20.1487 72.0263 20.3485 72.58 20.3485V18.3485ZM72.5331 18.3647C72.4936 18.3216 72.488 18.3001 72.488 18.2565H70.488C70.488 18.8101 70.6877 19.3113 71.0588 19.7162L72.5331 18.3647ZM72.488 18.2565C72.488 18.2067 72.4957 18.1881 72.4957 18.1881C72.4959 18.1876 72.496 18.1875 72.4959 18.1876C72.4958 18.1878 72.4958 18.1879 72.4958 18.1878C72.4959 18.1877 72.4964 18.187 72.4974 18.1858C72.4984 18.1845 72.5002 18.1824 72.5031 18.1796L71.0889 16.7654C70.6777 17.1765 70.488 17.701 70.488 18.2565H72.488ZM72.4717 18.2096C72.5148 18.1701 72.5363 18.1645 72.58 18.1645V16.1645C72.0263 16.1645 71.5251 16.3642 71.1202 16.7353L72.4717 18.2096ZM72.58 18.1645H74.232V16.1645H72.58V18.1645ZM75.232 17.1645V15.5405H73.232V17.1645H75.232ZM75.232 15.5405C75.232 14.5282 75.4104 13.7956 75.6952 13.2801L73.9447 12.3128C73.4456 13.216 73.232 14.3127 73.232 15.5405H75.232ZM75.6909 13.2878C76.0215 12.7018 76.4087 12.3361 76.8352 12.1229L75.9408 10.334C75.0979 10.7554 74.4398 11.4351 73.949 12.3051L75.6909 13.2878ZM76.8453 12.1177C77.3624 11.8518 77.8875 11.7245 78.432 11.7245V9.72446C77.5578 9.72446 76.7202 9.9331 75.9306 10.3392L76.8453 12.1177ZM78.432 11.7245C79.1622 11.7245 79.82 11.8785 80.4208 12.1789L81.3152 10.39C80.4226 9.94372 79.4564 9.72446 78.432 9.72446V11.7245ZM80.4208 12.1789C80.4298 12.1834 80.4399 12.188 80.4585 12.219L82.1735 11.19C81.968 10.8476 81.6795 10.5722 81.3152 10.39L80.4208 12.1789ZM80.5266 12.3184C80.5305 12.3234 80.5249 12.3173 80.5191 12.3008C80.5165 12.2932 80.5145 12.2855 80.5133 12.2784C80.5121 12.2712 80.512 12.2664 80.512 12.2645H82.512C82.512 11.8282 82.3671 11.4271 82.1053 11.0905L80.5266 12.3184ZM80.512 12.2645C80.512 12.2789 80.51 12.2835 80.5089 12.2862C80.5072 12.2902 80.4986 12.3101 80.4668 12.3447L81.9411 13.6962C82.2998 13.3049 82.512 12.8169 82.512 12.2645H80.512ZM80.4969 12.3134C80.4858 12.3244 80.4788 12.3295 80.4764 12.3312C80.4742 12.3327 80.475 12.3319 80.4783 12.3305C80.4817 12.3291 80.4848 12.3282 80.4862 12.328C80.4875 12.3277 80.4846 12.3285 80.476 12.3285V14.3285C81.032 14.3285 81.526 14.1127 81.9111 13.7276L80.4969 12.3134ZM80.476 12.3285C80.3618 12.3285 80.2289 12.3129 80.0745 12.2743L79.5894 14.2146C79.8831 14.288 80.1795 14.3285 80.476 14.3285V12.3285ZM79.956 12.2522C79.7304 12.224 79.5501 12.2023 79.4174 12.1876C79.3166 12.1764 79.173 12.1605 79.076 12.1605V14.1605C79.038 14.1605 79.0209 14.1577 79.0642 14.1616C79.0932 14.1642 79.1366 14.1687 79.1965 14.1753C79.3158 14.1886 79.4856 14.2089 79.7079 14.2367L79.956 12.2522ZM79.076 12.1605C78.1723 12.1605 77.3126 12.3687 76.6691 12.9509L78.0109 14.434C78.1513 14.3069 78.449 14.1605 79.076 14.1605V12.1605ZM76.6512 12.9675C75.9683 13.6162 75.78 14.6213 75.78 15.6245H77.78C77.78 14.7609 77.965 14.478 78.0287 14.4175L76.6512 12.9675ZM75.78 15.6245V17.1645H77.78V15.6245H75.78ZM76.78 18.1645H80.28V16.1645H76.78V18.1645ZM80.28 18.1645C80.3297 18.1645 80.3483 18.1722 80.3483 18.1722C80.3489 18.1724 80.349 18.1725 80.3488 18.1724C80.3486 18.1723 80.3485 18.1722 80.3486 18.1723C80.3487 18.1724 80.3494 18.1728 80.3507 18.1739C80.3519 18.1749 80.354 18.1767 80.3569 18.1796L81.7711 16.7654C81.3599 16.3542 80.8354 16.1645 80.28 16.1645V18.1645ZM80.3569 18.1796C80.3597 18.1824 80.3615 18.1845 80.3626 18.1858C80.3636 18.187 80.364 18.1877 80.3641 18.1878C80.3642 18.1879 80.3641 18.1878 80.364 18.1876C80.3639 18.1875 80.364 18.1876 80.3642 18.1881C80.3642 18.1881 80.372 18.2067 80.372 18.2565H82.372C82.372 17.701 82.1823 17.1765 81.7711 16.7654L80.3569 18.1796ZM80.372 18.2565C80.372 18.3001 80.3664 18.3216 80.3268 18.3647L81.8011 19.7162C82.1723 19.3113 82.372 18.8101 82.372 18.2565H80.372ZM80.3569 18.3334C80.354 18.3362 80.3519 18.338 80.3507 18.3391C80.3494 18.3401 80.3487 18.3405 80.3486 18.3406C80.3485 18.3407 80.3486 18.3406 80.3488 18.3405C80.349 18.3404 80.3489 18.3405 80.3483 18.3407C80.3483 18.3407 80.3297 18.3485 80.28 18.3485V20.3485C80.8354 20.3485 81.3599 20.1588 81.7711 19.7476L80.3569 18.3334ZM80.28 18.3485H76.78V20.3485H80.28V18.3485ZM75.78 19.3485V30.3245H77.78V19.3485H75.78ZM75.78 30.3245C75.78 30.3993 75.7664 30.433 75.7075 30.4877L77.0684 31.9533C77.5322 31.5226 77.78 30.9589 77.78 30.3245H75.78ZM75.6809 30.5134C75.6326 30.5616 75.5913 30.5845 75.492 30.5845V32.5845C76.1019 32.5845 76.658 32.3647 77.0951 31.9276L75.6809 30.5134ZM85.8259 19.3485H86.8259V18.3485H85.8259V19.3485ZM83.4459 19.2085L82.6777 19.8486L82.7359 19.9185L82.8058 19.9767L83.4459 19.2085ZM83.5579 18.3405L84.1719 19.1298L84.2166 19.095L84.2571 19.0554L83.5579 18.3405ZM87.3659 14.6165L88.0652 15.3315L88.073 15.3236L87.3659 14.6165ZM88.2059 14.5325L87.4377 15.1726L87.4668 15.2075L87.4988 15.2396L88.2059 14.5325ZM88.3739 17.1645H87.3739V18.1645H88.3739V17.1645ZM92.3219 17.4725L91.6148 18.1796L91.6148 18.1796L92.3219 17.4725ZM92.3219 19.0405L93.029 19.7476L93.0444 19.7322L93.0591 19.7162L92.3219 19.0405ZM88.3739 19.3485V18.3485H87.3739V19.3485H88.3739ZM88.8779 29.2045L88.3565 30.0577L88.3838 30.0744L88.4122 30.0894L88.8779 29.2045ZM91.3139 29.3165L91.0714 28.3463L91.0489 28.352L91.0266 28.3586L91.3139 29.3165ZM91.5379 29.2605L91.3418 28.2799L91.3185 28.2845L91.2954 28.2903L91.5379 29.2605ZM92.5739 29.5405L91.8668 30.2476L91.8837 30.2644L91.9013 30.2804L92.5739 29.5405ZM92.2379 31.2205L92.657 32.1284L92.679 32.1183L92.7005 32.107L92.2379 31.2205ZM89.9139 30.7245C88.6819 30.7245 87.9446 30.4438 87.5186 30.0587C87.1118 29.6909 86.8259 29.0788 86.8259 28.0285H84.8259C84.8259 29.4421 85.2215 30.6781 86.1773 31.5422C87.114 32.3891 88.4206 32.7245 89.9139 32.7245V30.7245ZM86.8259 28.0285V19.3485H84.8259V28.0285H86.8259ZM85.8259 18.3485H83.8379V20.3485H85.8259V18.3485ZM83.8379 18.3485C83.8691 18.3485 83.9137 18.3537 83.9643 18.3717C84.0152 18.3899 84.0565 18.4155 84.0861 18.4402L82.8058 19.9767C83.1022 20.2237 83.4609 20.3485 83.8379 20.3485V18.3485ZM84.2142 18.5683C84.2389 18.5979 84.2645 18.6392 84.2827 18.6901C84.3007 18.7407 84.3059 18.7853 84.3059 18.8165H82.3059C82.3059 19.1935 82.4307 19.5522 82.6777 19.8486L84.2142 18.5683ZM84.3059 18.8165C84.3059 18.8795 84.2901 18.9547 84.2527 19.0253C84.2174 19.0921 84.1791 19.1242 84.1719 19.1298L82.944 17.5511C82.5711 17.8411 82.3059 18.2752 82.3059 18.8165H84.3059ZM84.2571 19.0554L88.0651 15.3314L86.6668 13.9015L82.8588 17.6255L84.2571 19.0554ZM88.073 15.3236C88.1079 15.2887 88.1108 15.2943 88.0788 15.3112C88.043 15.3302 87.9603 15.3645 87.8419 15.3645V13.3645C87.3071 13.3645 86.9075 13.6607 86.6588 13.9094L88.073 15.3236ZM87.8419 15.3645C87.789 15.3645 87.7113 15.3538 87.6259 15.3144C87.5398 15.2747 87.4773 15.2202 87.4377 15.1726L88.9742 13.8923C88.6856 13.546 88.2797 13.3645 87.8419 13.3645V15.3645ZM87.4988 15.2396C87.4751 15.2159 87.4403 15.1726 87.4128 15.1084C87.3848 15.043 87.3739 14.9783 87.3739 14.9245H89.3739C89.3739 14.4926 89.2 14.1123 88.913 13.8253L87.4988 15.2396ZM87.3739 14.9245V17.1645H89.3739V14.9245H87.3739ZM88.3739 18.1645H91.5379V16.1645H88.3739V18.1645ZM91.5379 18.1645C91.5876 18.1645 91.6063 18.1722 91.6063 18.1722C91.6068 18.1724 91.6069 18.1725 91.6068 18.1724C91.6066 18.1723 91.6065 18.1722 91.6066 18.1723C91.6067 18.1724 91.6074 18.1728 91.6086 18.1739C91.6099 18.1749 91.612 18.1767 91.6148 18.1796L93.029 16.7654C92.6179 16.3542 92.0934 16.1645 91.5379 16.1645V18.1645ZM91.6148 18.1796C91.6177 18.1824 91.6195 18.1845 91.6205 18.1858C91.6216 18.187 91.622 18.1877 91.6221 18.1878C91.6222 18.1879 91.6221 18.1878 91.622 18.1876C91.6219 18.1875 91.622 18.1876 91.6222 18.1881C91.6222 18.1881 91.6299 18.2067 91.6299 18.2565H93.6299C93.6299 17.701 93.4402 17.1765 93.029 16.7654L91.6148 18.1796ZM91.6299 18.2565C91.6299 18.3001 91.6243 18.3216 91.5848 18.3647L93.0591 19.7162C93.4302 19.3113 93.6299 18.8101 93.6299 18.2565H91.6299ZM91.6148 18.3334C91.612 18.3362 91.6099 18.338 91.6086 18.3391C91.6074 18.3401 91.6067 18.3405 91.6066 18.3406C91.6065 18.3407 91.6066 18.3406 91.6068 18.3405C91.6069 18.3404 91.6068 18.3405 91.6063 18.3407C91.6063 18.3407 91.5876 18.3485 91.5379 18.3485V20.3485C92.0934 20.3485 92.6179 20.1588 93.029 19.7476L91.6148 18.3334ZM91.5379 18.3485H88.3739V20.3485H91.5379V18.3485ZM87.3739 19.3485V27.8045H89.3739V19.3485H87.3739ZM87.3739 27.8045C87.3739 28.5916 87.5401 29.5588 88.3565 30.0577L89.3994 28.3512C89.4716 28.3953 89.4681 28.4376 89.4408 28.3617C89.4097 28.2752 89.3739 28.102 89.3739 27.8045H87.3739ZM88.4122 30.0894C88.9475 30.3711 89.5567 30.4845 90.1939 30.4845V28.4845C89.7858 28.4845 89.5177 28.4111 89.3437 28.3195L88.4122 30.0894ZM90.1939 30.4845C90.6688 30.4845 91.1389 30.413 91.6013 30.2743L91.0266 28.3586C90.7424 28.4439 90.4657 28.4845 90.1939 28.4845V30.4845ZM91.5565 30.2866C91.6311 30.2679 91.7058 30.2493 91.7805 30.2306L91.2954 28.2903C91.2207 28.309 91.1461 28.3276 91.0714 28.3463L91.5565 30.2866ZM91.7341 30.241C91.744 30.2391 91.7866 30.2325 91.8739 30.2325V28.2325C91.6999 28.2325 91.5186 28.2445 91.3418 28.2799L91.7341 30.241ZM91.8739 30.2325C91.8734 30.2325 91.8688 30.2324 91.8615 30.2308C91.8541 30.2293 91.8474 30.227 91.8422 30.2248C91.8372 30.2226 91.8364 30.2216 91.8401 30.2241C91.8439 30.2268 91.853 30.2337 91.8668 30.2476L93.281 28.8334C92.911 28.4633 92.4311 28.2325 91.8739 28.2325V30.2325ZM91.9013 30.2804C91.9064 30.2851 91.9058 30.2853 91.9023 30.2806C91.8987 30.2756 91.8939 30.2679 91.8896 30.2582C91.8853 30.2485 91.8831 30.2403 91.8821 30.2353C91.8812 30.2306 91.8819 30.2318 91.8819 30.2405H93.8819C93.8819 29.6816 93.6626 29.1786 93.2466 28.8005L91.9013 30.2804ZM91.8819 30.2405C91.8819 30.2639 91.8791 30.2722 91.8797 30.2701C91.8805 30.2672 91.8827 30.2621 91.8852 30.2583C91.8913 30.249 91.8746 30.2821 91.7754 30.3339L92.7005 32.107C93.0306 31.9348 93.3359 31.6926 93.5566 31.3566C93.7816 31.0143 93.8819 30.6303 93.8819 30.2405H91.8819ZM91.8189 30.3125C91.2255 30.5864 90.5942 30.7245 89.9139 30.7245V32.7245C90.8763 32.7245 91.7944 32.5266 92.657 32.1284L91.8189 30.3125ZM97.4413 31.2205L98.1485 30.5134L97.4413 31.2205ZM97.4413 11.2565L98.1485 11.9636L98.1615 11.9505L98.1741 11.9369L97.4413 11.2565ZM99.2613 11.2285L99.9685 10.5213V10.5213L99.2613 11.2285ZM99.2333 31.2205L98.5529 30.4877L98.5393 30.5003L98.5262 30.5134L99.2333 31.2205ZM98.3373 30.5845C98.238 30.5845 98.1967 30.5616 98.1485 30.5134L96.7342 31.9276C97.1713 32.3647 97.7274 32.5845 98.3373 32.5845V30.5845ZM98.1485 30.5134C98.1002 30.4651 98.0773 30.4238 98.0773 30.3245H96.0773C96.0773 30.9344 96.2971 31.4905 96.7342 31.9276L98.1485 30.5134ZM98.0773 30.3245V12.1525H96.0773V30.3245H98.0773ZM98.0773 12.1525C98.0773 12.0531 98.1002 12.0118 98.1485 11.9636L96.7342 10.5494C96.2971 10.9865 96.0773 11.5425 96.0773 12.1525H98.0773ZM98.1741 11.9369C98.2288 11.8781 98.2625 11.8645 98.3373 11.8645V9.86446C97.7029 9.86446 97.1392 10.1122 96.7086 10.576L98.1741 11.9369ZM98.3373 11.8645C98.4711 11.8645 98.5165 11.8978 98.5542 11.9356L99.9685 10.5213C99.5208 10.0737 98.9502 9.86446 98.3373 9.86446V11.8645ZM98.5542 11.9356C98.592 11.9733 98.6253 12.0187 98.6253 12.1525H100.625C100.625 11.5396 100.416 10.969 99.9685 10.5213L98.5542 11.9356ZM98.6253 12.1525V30.3245H100.625V12.1525H98.6253ZM98.6253 30.3245C98.6253 30.3993 98.6117 30.433 98.5529 30.4877L99.9138 31.9533C100.378 31.5226 100.625 30.9589 100.625 30.3245H98.6253ZM98.5262 30.5134C98.478 30.5616 98.4367 30.5845 98.3373 30.5845V32.5845C98.9473 32.5845 99.5033 32.3647 99.9405 31.9276L98.5262 30.5134ZM106.794 31.2205L106.357 32.1197L106.366 32.1242L106.794 31.2205ZM105.142 29.7645L104.295 30.2967L104.302 30.3077L105.142 29.7645ZM106.15 24.2205L105.552 23.4188L105.546 23.4238L106.15 24.2205ZM114.354 22.9885V23.9885H115.354V22.9885H114.354ZM113.43 20.1045L112.758 20.8454L112.764 20.8506L112.77 20.8556L113.43 20.1045ZM108.698 19.4605L108.502 18.4799L108.495 18.4812L108.698 19.4605ZM106.878 19.9645L107.121 20.9346L107.158 20.9253L107.194 20.9131L106.878 19.9645ZM105.786 19.7125L106.493 19.0054V19.0054L105.786 19.7125ZM106.206 17.8925L106.596 18.8134L106.596 18.8133L106.206 17.8925ZM114.298 17.6685L113.786 18.5276L113.794 18.5322L114.298 17.6685ZM116.258 19.7125L115.36 20.1517L115.366 20.1638L115.372 20.1757L116.258 19.7125ZM116.51 31.2205L115.83 30.4877L115.816 30.5003L115.803 30.5134L116.51 31.2205ZM114.718 31.2205L115.425 30.5134L114.718 31.2205ZM114.354 29.5965H115.354V27.136L113.638 28.8988L114.354 29.5965ZM112.422 28.8965L112.878 29.7865L112.886 29.7821L112.895 29.7776L112.422 28.8965ZM114.354 27.3845L115.107 28.043L115.354 27.7602V27.3845H114.354ZM114.354 25.0325H115.354V24.0325H114.354V25.0325ZM107.746 28.8685L107.07 29.6056L107.078 29.6125L107.085 29.6192L107.746 28.8685ZM109.09 30.7245C108.41 30.7245 107.791 30.5864 107.222 30.3167L106.366 32.1242C107.215 32.5265 108.128 32.7245 109.09 32.7245V30.7245ZM107.231 30.3212C106.702 30.0637 106.292 29.7002 105.982 29.2212L104.302 30.3077C104.814 31.098 105.505 31.7053 106.357 32.1197L107.231 30.3212ZM105.989 29.2323C105.687 28.7524 105.526 28.1935 105.526 27.5245H103.526C103.526 28.5354 103.776 29.4698 104.295 30.2966L105.989 29.2323ZM105.526 27.5245C105.526 26.4499 105.926 25.6458 106.754 25.0171L105.546 23.4238C104.209 24.4378 103.526 25.8364 103.526 27.5245H105.526ZM106.748 25.0221C107.606 24.3821 108.964 23.9885 110.966 23.9885V21.9885C108.75 21.9885 106.897 22.4162 105.552 23.4188L106.748 25.0221ZM110.966 23.9885H114.354V21.9885H110.966V23.9885ZM115.354 22.9885V22.7645H113.354V22.9885H115.354ZM115.354 22.7645C115.354 21.3905 115.012 20.1631 114.09 19.3533L112.77 20.8556C113.08 21.1285 113.354 21.6744 113.354 22.7645H115.354ZM114.102 19.3635C113.237 18.5803 111.997 18.2925 110.602 18.2925V20.2925C111.783 20.2925 112.428 20.5459 112.758 20.8454L114.102 19.3635ZM110.602 18.2925C109.842 18.2925 109.14 18.3523 108.502 18.4799L108.894 20.441C109.376 20.3446 109.943 20.2925 110.602 20.2925V18.2925ZM108.495 18.4812C107.907 18.603 107.261 18.7826 106.562 19.0158L107.194 20.9131C107.839 20.6983 108.407 20.5419 108.901 20.4397L108.495 18.4812ZM106.635 18.9943C106.584 19.0073 106.547 19.0144 106.523 19.0181C106.498 19.0219 106.497 19.0205 106.514 19.0205V21.0205C106.725 21.0205 106.936 20.9807 107.121 20.9346L106.635 18.9943ZM106.514 19.0205C106.505 19.0205 106.502 19.0197 106.504 19.02C106.505 19.0202 106.508 19.0211 106.512 19.0225C106.515 19.0239 106.516 19.0247 106.514 19.0232C106.511 19.0215 106.504 19.0164 106.493 19.0054L105.079 20.4196C105.464 20.8047 105.958 21.0205 106.514 21.0205V19.0205ZM106.493 19.0054C106.485 18.9971 106.481 18.9922 106.481 18.9911C106.48 18.9901 106.481 18.9907 106.481 18.9922C106.482 18.9935 106.481 18.9928 106.48 18.9884C106.479 18.9839 106.478 18.9737 106.478 18.9565H104.478C104.478 19.5119 104.68 20.0208 105.079 20.4196L106.493 19.0054ZM106.478 18.9565C106.478 18.9107 106.483 18.8867 106.486 18.8784C106.488 18.8714 106.488 18.8729 106.485 18.8771C106.476 18.8903 106.489 18.8584 106.596 18.8134L105.816 16.9715C105.437 17.1318 105.086 17.38 104.835 17.7478C104.581 18.1186 104.478 18.5386 104.478 18.9565H106.478ZM106.596 18.8133C108.065 18.1909 109.548 17.8845 111.05 17.8845V15.8845C109.267 15.8845 107.52 16.25 105.816 16.9716L106.596 18.8133ZM111.05 17.8845C112.204 17.8845 113.099 18.1183 113.786 18.5276L114.81 16.8094C113.742 16.1733 112.472 15.8845 111.05 15.8845V17.8845ZM113.794 18.5322C114.539 18.9667 115.045 19.5082 115.36 20.1517L117.156 19.2732C116.65 18.2367 115.849 17.4155 114.802 16.8047L113.794 18.5322ZM115.372 20.1757C115.723 20.8472 115.902 21.5832 115.902 22.4005H117.902C117.902 21.2763 117.652 20.2203 117.144 19.2492L115.372 20.1757ZM115.902 22.4005V30.3245H117.902V22.4005H115.902ZM115.902 30.3245C115.902 30.3993 115.888 30.433 115.83 30.4877L117.19 31.9533C117.654 31.5226 117.902 30.9589 117.902 30.3245H115.902ZM115.803 30.5134C115.755 30.5616 115.713 30.5845 115.614 30.5845V32.5845C116.224 32.5845 116.78 32.3647 117.217 31.9276L115.803 30.5134ZM115.614 30.5845C115.515 30.5845 115.473 30.5616 115.425 30.5134L114.011 31.9276C114.448 32.3647 115.004 32.5845 115.614 32.5845V30.5845ZM115.425 30.5134C115.377 30.4651 115.354 30.4238 115.354 30.3245H113.354C113.354 30.9344 113.574 31.4905 114.011 31.9276L115.425 30.5134ZM115.354 30.3245V29.5965H113.354V30.3245H115.354ZM113.638 28.8988C112.46 30.1087 110.971 30.7245 109.09 30.7245V32.7245C111.465 32.7245 113.486 31.9215 115.07 30.2941L113.638 28.8988ZM110.042 30.4845C111.029 30.4845 111.978 30.2473 112.878 29.7865L111.966 28.0064C111.335 28.3296 110.697 28.4845 110.042 28.4845V30.4845ZM112.895 29.7776C113.756 29.3155 114.498 28.7389 115.107 28.043L113.601 26.726C113.165 27.2247 112.619 27.6561 111.949 28.0153L112.895 29.7776ZM115.354 27.3845V25.0325H113.354V27.3845H115.354ZM114.354 24.0325H111.302V26.0325H114.354V24.0325ZM111.302 24.0325C109.838 24.0325 108.587 24.2185 107.667 24.6994C107.193 24.9476 106.783 25.287 106.495 25.7394C106.204 26.1958 106.074 26.7098 106.074 27.2445H108.074C108.074 27.0417 108.12 26.9106 108.182 26.814C108.246 26.7134 108.364 26.592 108.595 26.4715C109.085 26.2151 109.947 26.0325 111.302 26.0325V24.0325ZM106.074 27.2445C106.074 28.1638 106.393 28.9843 107.07 29.6056L108.422 28.1313C108.203 27.9312 108.074 27.6691 108.074 27.2445H106.074ZM107.085 29.6192C107.826 30.2711 108.894 30.4845 110.042 30.4845V28.4845C109.062 28.4845 108.599 28.2871 108.407 28.1177L107.085 29.6192ZM122.937 31.2205L123.644 30.5134L122.937 31.2205ZM122.937 17.4165L123.644 18.1236L123.657 18.1105L123.669 18.0969L122.937 17.4165ZM124.729 17.4165L123.996 18.0969L124.021 18.124L124.048 18.1493L124.729 17.4165ZM125.121 19.4605H124.121V22.0562L125.862 20.1314L125.121 19.4605ZM127.417 17.5845L127.911 18.4539L127.417 17.5845ZM132.989 17.6125L132.444 18.451L132.453 18.457L132.989 17.6125ZM134.725 19.6005L133.818 20.0233L133.822 20.0315L133.826 20.0397L134.725 19.6005ZM134.949 31.2205L134.268 30.4877L134.255 30.5003L134.242 30.5134L134.949 31.2205ZM133.157 31.2205L132.45 31.9276H132.45L133.157 31.2205ZM127.193 19.9645L126.648 19.126L126.638 19.1324L127.193 19.9645ZM125.121 21.9245L124.338 21.3019L124.121 21.5752V21.9245H125.121ZM124.729 31.2205L124.048 30.4877L124.035 30.5003L124.022 30.5134L124.729 31.2205ZM123.833 30.5845C123.733 30.5845 123.692 30.5616 123.644 30.5134L122.23 31.9276C122.667 32.3647 123.223 32.5845 123.833 32.5845V30.5845ZM123.644 30.5134C123.596 30.4651 123.573 30.4238 123.573 30.3245H121.573C121.573 30.9344 121.792 31.4905 122.23 31.9276L123.644 30.5134ZM123.573 30.3245V18.3125H121.573V30.3245H123.573ZM123.573 18.3125C123.573 18.2131 123.596 18.1718 123.644 18.1236L122.23 16.7094C121.792 17.1465 121.573 17.7025 121.573 18.3125H123.573ZM123.669 18.0969C123.724 18.0381 123.758 18.0245 123.833 18.0245V16.0245C123.198 16.0245 122.635 16.2722 122.204 16.736L123.669 18.0969ZM123.833 18.0245C123.908 18.0245 123.941 18.0381 123.996 18.0969L125.461 16.736C125.031 16.2722 124.467 16.0245 123.833 16.0245V18.0245ZM124.048 18.1493C124.107 18.2039 124.121 18.2376 124.121 18.3125H126.121C126.121 17.678 125.873 17.1144 125.409 16.6837L124.048 18.1493ZM124.121 18.3125V19.4605H126.121V18.3125H124.121ZM125.862 20.1314C126.509 19.417 127.192 18.8621 127.911 18.4539L126.923 16.715C125.998 17.2401 125.151 17.9359 124.379 18.7895L125.862 20.1314ZM127.911 18.4539C128.556 18.0874 129.35 17.8845 130.329 17.8845V15.8845C129.068 15.8845 127.92 16.1481 126.923 16.715L127.911 18.4539ZM130.329 17.8845C131.192 17.8845 131.883 18.0864 132.444 18.4509L133.534 16.774C132.601 16.1679 131.518 15.8845 130.329 15.8845V17.8845ZM132.453 18.457C133.053 18.8376 133.505 19.3522 133.818 20.0233L135.631 19.1776C135.16 18.1687 134.455 17.358 133.524 16.7679L132.453 18.457ZM133.826 20.0397C134.165 20.7324 134.341 21.5046 134.341 22.3725H136.341C136.341 21.2243 136.106 20.1485 135.623 19.1612L133.826 20.0397ZM134.341 22.3725V30.3245H136.341V22.3725H134.341ZM134.341 30.3245C134.341 30.3993 134.327 30.433 134.268 30.4877L135.629 31.9533C136.093 31.5226 136.341 30.9589 136.341 30.3245H134.341ZM134.242 30.5134C134.193 30.5616 134.152 30.5845 134.053 30.5845V32.5845C134.663 32.5845 135.219 32.3647 135.656 31.9276L134.242 30.5134ZM134.053 30.5845C133.953 30.5845 133.912 30.5616 133.864 30.5134L132.45 31.9276C132.887 32.3647 133.443 32.5845 134.053 32.5845V30.5845ZM133.864 30.5134C133.816 30.4651 133.793 30.4238 133.793 30.3245H131.793C131.793 30.9344 132.012 31.4905 132.45 31.9276L133.864 30.5134ZM133.793 30.3245V22.6525H131.793V30.3245H133.793ZM133.793 22.6525C133.793 21.3837 133.509 20.2455 132.765 19.4208C132.004 18.5765 130.922 18.2365 129.713 18.2365V20.2365C130.557 20.2365 131.015 20.4658 131.28 20.7601C131.563 21.0741 131.793 21.6438 131.793 22.6525H133.793ZM129.713 18.2365C128.596 18.2365 127.565 18.53 126.648 19.126L127.738 20.8029C128.314 20.4282 128.963 20.2365 129.713 20.2365V18.2365ZM126.638 19.1324C125.808 19.6855 125.044 20.415 124.338 21.3019L125.903 22.547C126.504 21.7912 127.121 21.2141 127.747 20.7965L126.638 19.1324ZM124.121 21.9245V30.3245H126.121V21.9245H124.121ZM124.121 30.3245C124.121 30.3993 124.107 30.433 124.048 30.4877L125.409 31.9533C125.873 31.5226 126.121 30.9589 126.121 30.3245H124.121ZM124.022 30.5134C123.973 30.5616 123.932 30.5845 123.833 30.5845V32.5845C124.443 32.5845 124.999 32.3647 125.436 31.9276L124.022 30.5134ZM143.639 30.8565L143.136 31.7208L143.146 31.7262L143.155 31.7314L143.639 30.8565ZM141.119 28.2805L140.246 28.7673L140.25 28.7759L140.255 28.7843L141.119 28.2805ZM141.119 20.3565L140.252 19.8588L140.249 19.8634L141.119 20.3565ZM143.639 17.7805L144.13 18.6516L144.135 18.6487L143.639 17.7805ZM151.731 19.0125L151.01 19.7052L152.731 21.4971V19.0125H151.731ZM152.095 11.2285L151.415 10.4957L151.401 10.5083L151.388 10.5213L152.095 11.2285ZM153.915 11.2565L153.182 11.9369L153.195 11.9505L153.208 11.9636L153.915 11.2565ZM153.915 31.2205L154.622 31.9276L153.915 31.2205ZM152.095 31.2205L151.388 31.9276L151.401 31.9407L151.415 31.9533L152.095 31.2205ZM151.731 29.5965H152.731V27.1118L151.01 28.9037L151.731 29.5965ZM149.715 28.7845L150.162 29.6789L150.171 29.6745L149.715 28.7845ZM151.731 27.2445L152.47 27.9182L152.731 27.6319V27.2445H151.731ZM151.731 21.3645H152.731V20.977L152.47 20.6907L151.731 21.3645ZM149.715 19.8525L149.25 20.7379L149.263 20.7447L149.277 20.7512L149.715 19.8525ZM143.975 20.5805L144.697 21.272L143.975 20.5805ZM146.943 30.7245C145.961 30.7245 145.026 30.4809 144.123 29.9816L143.155 31.7314C144.343 32.3893 145.611 32.7245 146.943 32.7245V30.7245ZM144.142 29.9921C143.278 29.4896 142.557 28.7613 141.983 27.7766L140.255 28.7843C140.988 30.0396 141.947 31.0287 143.136 31.7208L144.142 29.9921ZM141.993 27.7936C141.453 26.8261 141.167 25.6735 141.167 24.3045H139.167C139.167 25.9594 139.516 27.4575 140.246 28.7673L141.993 27.7936ZM141.167 24.3045C141.167 22.9349 141.454 21.7948 141.989 20.8495L140.249 19.8634C139.515 21.1582 139.167 22.65 139.167 24.3045H141.167ZM141.987 20.8541C142.561 19.8533 143.278 19.1321 144.13 18.6516L143.148 16.9093C141.947 17.5861 140.984 18.5823 140.252 19.8588L141.987 20.8541ZM144.135 18.6487C145.036 18.1341 145.967 17.8845 146.943 17.8845V15.8845C145.605 15.8845 144.333 16.2322 143.143 16.9122L144.135 18.6487ZM146.943 17.8845C148.478 17.8845 149.82 18.4664 151.01 19.7052L152.452 18.3197C150.917 16.7212 149.067 15.8845 146.943 15.8845V17.8845ZM152.731 19.0125V12.1525H150.731V19.0125H152.731ZM152.731 12.1525C152.731 12.0187 152.765 11.9733 152.802 11.9356L151.388 10.5213C150.94 10.969 150.731 11.5396 150.731 12.1525H152.731ZM152.776 11.9613C152.853 11.8893 152.918 11.8645 153.019 11.8645V9.86446C152.411 9.86446 151.86 10.0823 151.415 10.4957L152.776 11.9613ZM153.019 11.8645C153.094 11.8645 153.128 11.8781 153.182 11.9369L154.648 10.576C154.217 10.1122 153.654 9.86446 153.019 9.86446V11.8645ZM153.208 11.9636C153.256 12.0118 153.279 12.0531 153.279 12.1525H155.279C155.279 11.5425 155.059 10.9865 154.622 10.5494L153.208 11.9636ZM153.279 12.1525V30.3245H155.279V12.1525H153.279ZM153.279 30.3245C153.279 30.4238 153.256 30.4651 153.208 30.5134L154.622 31.9276C155.059 31.4905 155.279 30.9344 155.279 30.3245H153.279ZM153.208 30.5134C153.16 30.5616 153.119 30.5845 153.019 30.5845V32.5845C153.629 32.5845 154.185 32.3647 154.622 31.9276L153.208 30.5134ZM153.019 30.5845C152.918 30.5845 152.853 30.5596 152.776 30.4877L151.415 31.9533C151.86 32.3666 152.411 32.5845 153.019 32.5845V30.5845ZM152.802 30.5134C152.754 30.4651 152.731 30.4238 152.731 30.3245H150.731C150.731 30.9344 150.951 31.4905 151.388 31.9276L152.802 30.5134ZM152.731 30.3245V29.5965H150.731V30.3245H152.731ZM151.01 28.9037C149.82 30.1425 148.478 30.7245 146.943 30.7245V32.7245C149.067 32.7245 150.917 31.8877 152.452 30.2892L151.01 28.9037ZM147.307 30.3445C148.316 30.3445 149.273 30.1237 150.162 29.6789L149.268 27.89C148.664 28.1919 148.015 28.3445 147.307 28.3445V30.3445ZM150.171 29.6745C151.043 29.228 151.811 28.6414 152.47 27.9182L150.992 26.5707C150.494 27.1168 149.918 27.5569 149.259 27.8944L150.171 29.6745ZM152.731 27.2445V21.3645H150.731V27.2445H152.731ZM152.47 20.6907C151.807 19.9636 151.033 19.3829 150.154 18.9537L149.277 20.7512C149.928 21.0687 150.498 21.496 150.992 22.0382L152.47 20.6907ZM150.18 18.9671C149.287 18.4984 148.325 18.2645 147.307 18.2645V20.2645C148.007 20.2645 148.65 20.4225 149.25 20.7379L150.18 18.9671ZM147.307 18.2645C145.694 18.2645 144.308 18.7868 143.253 19.8889L144.697 21.272C145.322 20.6195 146.158 20.2645 147.307 20.2645V18.2645ZM143.253 19.8889C142.183 21.006 141.715 22.5268 141.715 24.3045H143.715C143.715 22.8715 144.087 21.9096 144.697 21.272L143.253 19.8889ZM141.715 24.3045C141.715 26.0821 142.183 27.6029 143.253 28.72L144.697 27.3369C144.087 26.6993 143.715 25.7374 143.715 24.3045H141.715ZM143.253 28.72C144.308 29.8222 145.694 30.3445 147.307 30.3445V28.3445C146.158 28.3445 145.322 27.9894 144.697 27.3369L143.253 28.72ZM160.295 13.8325L159.588 14.5396L159.588 14.5396L160.295 13.8325ZM162.479 13.8325L163.186 14.5396L163.186 14.5396L162.479 13.8325ZM160.463 31.2205L161.17 30.5134L160.463 31.2205ZM160.463 17.4165L161.17 18.1236L161.183 18.1105L161.196 18.0969L160.463 17.4165ZM162.283 17.3885L162.99 16.6814L162.283 17.3885ZM162.255 31.2205L161.575 30.4877L161.561 30.5003L161.548 30.5134L162.255 31.2205ZM161.303 13.2525C161.179 13.2525 161.097 13.22 161.002 13.1254L159.588 14.5396C160.054 15.005 160.643 15.2525 161.303 15.2525V13.2525ZM161.002 13.1254C160.908 13.0307 160.875 12.9482 160.875 12.8245H158.875C158.875 13.4847 159.123 14.0742 159.588 14.5396L161.002 13.1254ZM160.875 12.8245V12.7125H158.875V12.8245H160.875ZM160.875 12.7125C160.875 12.5887 160.908 12.5062 161.002 12.4116L159.588 10.9973C159.123 11.4627 158.875 12.0522 158.875 12.7125H160.875ZM161.002 12.4116C161.097 12.317 161.179 12.2845 161.303 12.2845V10.2845C160.643 10.2845 160.054 10.532 159.588 10.9973L161.002 12.4116ZM161.303 12.2845H161.471V10.2845H161.303V12.2845ZM161.471 12.2845C161.595 12.2845 161.678 12.317 161.772 12.4116L163.186 10.9973C162.721 10.532 162.131 10.2845 161.471 10.2845V12.2845ZM161.772 12.4116C161.867 12.5062 161.899 12.5887 161.899 12.7125H163.899C163.899 12.0522 163.652 11.4627 163.186 10.9973L161.772 12.4116ZM161.899 12.7125V12.8245H163.899V12.7125H161.899ZM161.899 12.8245C161.899 12.9482 161.867 13.0307 161.772 13.1254L163.186 14.5396C163.652 14.0742 163.899 13.4847 163.899 12.8245H161.899ZM161.772 13.1254C161.678 13.22 161.595 13.2525 161.471 13.2525V15.2525C162.131 15.2525 162.721 15.005 163.186 14.5396L161.772 13.1254ZM161.471 13.2525H161.303V15.2525H161.471V13.2525ZM161.359 30.5845C161.26 30.5845 161.219 30.5616 161.17 30.5134L159.756 31.9276C160.193 32.3647 160.749 32.5845 161.359 32.5845V30.5845ZM161.17 30.5134C161.122 30.4651 161.099 30.4238 161.099 30.3245H159.099C159.099 30.9344 159.319 31.4905 159.756 31.9276L161.17 30.5134ZM161.099 30.3245V18.3125H159.099V30.3245H161.099ZM161.099 18.3125C161.099 18.2131 161.122 18.1718 161.17 18.1236L159.756 16.7094C159.319 17.1465 159.099 17.7025 159.099 18.3125H161.099ZM161.196 18.0969C161.251 18.0381 161.284 18.0245 161.359 18.0245V16.0245C160.725 16.0245 160.161 16.2722 159.73 16.736L161.196 18.0969ZM161.359 18.0245C161.493 18.0245 161.538 18.0578 161.576 18.0956L162.99 16.6814C162.543 16.2337 161.972 16.0245 161.359 16.0245V18.0245ZM161.576 18.0956C161.614 18.1333 161.647 18.1787 161.647 18.3125H163.647C163.647 17.6996 163.438 17.129 162.99 16.6814L161.576 18.0956ZM161.647 18.3125V30.3245H163.647V18.3125H161.647ZM161.647 30.3245C161.647 30.3993 161.634 30.433 161.575 30.4877L162.936 31.9533C163.399 31.5226 163.647 30.9589 163.647 30.3245H161.647ZM161.548 30.5134C161.5 30.5616 161.459 30.5845 161.359 30.5845V32.5845C161.969 32.5845 162.525 32.3647 162.962 31.9276L161.548 30.5134ZM168.836 31.2205L169.543 30.5134L168.836 31.2205ZM168.836 17.4165L169.543 18.1236L169.556 18.1105L169.569 18.0969L168.836 17.4165ZM170.628 17.4165L169.895 18.0969L169.92 18.124L169.947 18.1493L170.628 17.4165ZM171.02 19.4605H170.02V22.0562L171.761 20.1314L171.02 19.4605ZM173.316 17.5845L173.81 18.4539L173.316 17.5845ZM178.888 17.6125L178.343 18.451L178.352 18.457L178.888 17.6125ZM180.624 19.6005L179.718 20.0233L179.722 20.0315L179.725 20.0397L180.624 19.6005ZM180.848 31.2205L180.167 30.4877L180.154 30.5003L180.141 30.5134L180.848 31.2205ZM179.056 31.2205L178.349 31.9276H178.349L179.056 31.2205ZM173.092 19.9645L172.547 19.126L172.537 19.1324L173.092 19.9645ZM171.02 21.9245L170.237 21.3019L170.02 21.5752V21.9245H171.02ZM170.628 31.2205L169.947 30.4877L169.934 30.5003L169.921 30.5134L170.628 31.2205ZM169.732 30.5845C169.633 30.5845 169.591 30.5616 169.543 30.5134L168.129 31.9276C168.566 32.3647 169.122 32.5845 169.732 32.5845V30.5845ZM169.543 30.5134C169.495 30.4651 169.472 30.4238 169.472 30.3245H167.472C167.472 30.9344 167.692 31.4905 168.129 31.9276L169.543 30.5134ZM169.472 30.3245V18.3125H167.472V30.3245H169.472ZM169.472 18.3125C169.472 18.2131 169.495 18.1718 169.543 18.1236L168.129 16.7094C167.692 17.1465 167.472 17.7025 167.472 18.3125H169.472ZM169.569 18.0969C169.623 18.0381 169.657 18.0245 169.732 18.0245V16.0245C169.097 16.0245 168.534 16.2722 168.103 16.736L169.569 18.0969ZM169.732 18.0245C169.807 18.0245 169.84 18.0381 169.895 18.0969L171.361 16.736C170.93 16.2722 170.366 16.0245 169.732 16.0245V18.0245ZM169.947 18.1493C170.006 18.2039 170.02 18.2376 170.02 18.3125H172.02C172.02 17.678 171.772 17.1144 171.308 16.6837L169.947 18.1493ZM170.02 18.3125V19.4605H172.02V18.3125H170.02ZM171.761 20.1314C172.408 19.417 173.091 18.8621 173.81 18.4539L172.822 16.715C171.898 17.2401 171.051 17.9359 170.278 18.7895L171.761 20.1314ZM173.81 18.4539C174.455 18.0874 175.249 17.8845 176.228 17.8845V15.8845C174.967 15.8845 173.82 16.1481 172.822 16.715L173.81 18.4539ZM176.228 17.8845C177.091 17.8845 177.782 18.0864 178.343 18.4509L179.433 16.774C178.5 16.1679 177.418 15.8845 176.228 15.8845V17.8845ZM178.352 18.457C178.953 18.8376 179.404 19.3522 179.718 20.0233L181.53 19.1776C181.059 18.1687 180.354 17.358 179.423 16.7679L178.352 18.457ZM179.725 20.0397C180.064 20.7324 180.24 21.5046 180.24 22.3725H182.24C182.24 21.2243 182.005 20.1485 181.522 19.1612L179.725 20.0397ZM180.24 22.3725V30.3245H182.24V22.3725H180.24ZM180.24 30.3245C180.24 30.3993 180.226 30.433 180.167 30.4877L181.528 31.9533C181.992 31.5226 182.24 30.9589 182.24 30.3245H180.24ZM180.141 30.5134C180.093 30.5616 180.051 30.5845 179.952 30.5845V32.5845C180.562 32.5845 181.118 32.3647 181.555 31.9276L180.141 30.5134ZM179.952 30.5845C179.853 30.5845 179.811 30.5616 179.763 30.5134L178.349 31.9276C178.786 32.3647 179.342 32.5845 179.952 32.5845V30.5845ZM179.763 30.5134C179.715 30.4651 179.692 30.4238 179.692 30.3245H177.692C177.692 30.9344 177.912 31.4905 178.349 31.9276L179.763 30.5134ZM179.692 30.3245V22.6525H177.692V30.3245H179.692ZM179.692 22.6525C179.692 21.3837 179.408 20.2455 178.665 19.4208C177.903 18.5765 176.821 18.2365 175.612 18.2365V20.2365C176.456 20.2365 176.914 20.4658 177.179 20.7601C177.462 21.0741 177.692 21.6438 177.692 22.6525H179.692ZM175.612 18.2365C174.495 18.2365 173.464 18.53 172.547 19.126L173.637 20.8029C174.213 20.4282 174.862 20.2365 175.612 20.2365V18.2365ZM172.537 19.1324C171.708 19.6855 170.943 20.415 170.237 21.3019L171.802 22.547C172.404 21.7912 173.02 21.2141 173.647 20.7965L172.537 19.1324ZM170.02 21.9245V30.3245H172.02V21.9245H170.02ZM170.02 30.3245C170.02 30.3993 170.006 30.433 169.947 30.4877L171.308 31.9533C171.772 31.5226 172.02 30.9589 172.02 30.3245H170.02ZM169.921 30.5134C169.873 30.5616 169.831 30.5845 169.732 30.5845V32.5845C170.342 32.5845 170.898 32.3647 171.335 31.9276L169.921 30.5134ZM187.606 36.7085L187.085 37.5617L187.095 37.5679L187.105 37.5739L187.606 36.7085ZM187.41 34.9165L186.703 34.2094L186.674 34.2388L186.647 34.2705L187.41 34.9165ZM188.726 34.6925L189.174 33.798L189.136 33.7794L189.098 33.764L188.726 34.6925ZM197.63 29.3165H198.63V26.7812L196.9 28.6338L197.63 29.3165ZM189.622 30.6325L189.144 31.5104L189.153 31.5155L189.163 31.5205L189.622 30.6325ZM187.074 28.1685L186.221 28.6893L186.225 28.6958L187.074 28.1685ZM187.074 20.1885L187.924 20.7158L187.928 20.7093L187.074 20.1885ZM189.622 17.7245L190.089 18.609L190.095 18.6059L189.622 17.7245ZM197.63 19.0125L196.9 19.6951L198.63 21.5477V19.0125H197.63ZM197.994 17.4165L198.701 18.1236L198.715 18.1105L198.727 18.0969L197.994 17.4165ZM199.786 17.4165L199.054 18.0969L199.079 18.124L199.106 18.1493L199.786 17.4165ZM198.47 36.2605L199.215 36.9282L198.47 36.2605ZM195.698 28.5605L195.213 27.6863L195.698 28.5605ZM197.63 27.0485L198.348 27.7449L198.63 27.454V27.0485H197.63ZM197.63 21.2805H198.63V20.875L198.348 20.584L197.63 21.2805ZM195.698 19.7685L196.184 18.8943V18.8943L195.698 19.7685ZM189.93 20.4965L190.622 21.2188L190.622 21.2184L189.93 20.4965ZM189.93 27.8605L189.231 28.5751L189.239 28.5826L189.246 28.59L189.93 27.8605ZM193.598 37.1645C192.603 37.1645 191.594 37.0358 190.569 36.7753L190.076 38.7136C191.254 39.0131 192.429 39.1645 193.598 39.1645V37.1645ZM190.569 36.7753C189.525 36.5099 188.713 36.1936 188.107 35.843L187.105 37.5739C187.918 38.0446 188.917 38.419 190.076 38.7136L190.569 36.7753ZM188.128 35.8552C188.113 35.8464 188.11 35.8419 188.112 35.844C188.114 35.8463 188.117 35.8499 188.118 35.8521C188.121 35.858 188.102 35.8278 188.102 35.7285H186.102C186.102 36.4679 186.406 37.1469 187.085 37.5617L188.128 35.8552ZM188.102 35.7285C188.102 35.6823 188.111 35.6371 188.174 35.5624L186.647 34.2705C186.3 34.6812 186.102 35.1773 186.102 35.7285H188.102ZM188.117 35.6236C188.144 35.5969 188.159 35.5902 188.164 35.5885C188.168 35.5867 188.184 35.5805 188.222 35.5805V33.5805C187.64 33.5805 187.115 33.7974 186.703 34.2094L188.117 35.6236ZM188.222 35.5805C188.209 35.5805 188.248 35.5781 188.355 35.6209L189.098 33.764C188.831 33.6575 188.535 33.5805 188.222 33.5805V35.5805ZM188.279 35.5869C189.843 36.369 191.537 36.7565 193.346 36.7565V34.7565C191.833 34.7565 190.447 34.4346 189.174 33.798L188.279 35.5869ZM193.346 36.7565C194.945 36.7565 196.324 36.3276 197.288 35.2998C198.242 34.284 198.63 32.8527 198.63 31.1925H196.63C196.63 32.5749 196.305 33.4256 195.83 33.9311C195.367 34.4247 194.603 34.7565 193.346 34.7565V36.7565ZM198.63 31.1925V29.3165H196.63V31.1925H198.63ZM196.9 28.6338C195.755 29.8592 194.42 30.4445 192.842 30.4445V32.4445C194.998 32.4445 196.855 31.6111 198.361 29.9991L196.9 28.6338ZM192.842 30.4445C191.912 30.4445 190.995 30.2174 190.082 29.7445L189.163 31.5205C190.34 32.1302 191.57 32.4445 192.842 32.4445V30.4445ZM190.101 29.7546C189.24 29.2847 188.513 28.5904 187.924 27.6411L186.225 28.6958C186.98 29.9119 187.952 30.8602 189.144 31.5104L190.101 29.7546ZM187.928 27.6476C187.37 26.7338 187.066 25.5883 187.066 24.1645H185.066C185.066 25.8766 185.434 27.4004 186.221 28.6893L187.928 27.6476ZM187.066 24.1645C187.066 22.7399 187.371 21.6072 187.924 20.7158L186.225 19.6611C185.434 20.935 185.066 22.453 185.066 24.1645H187.066ZM187.928 20.7093C188.517 19.7443 189.239 19.0571 190.089 18.609L189.156 16.8399C187.952 17.4745 186.976 18.43 186.221 19.6676L187.928 20.7093ZM190.095 18.6059C191.006 18.1176 191.918 17.8845 192.842 17.8845V15.8845C191.564 15.8845 190.329 16.2113 189.15 16.843L190.095 18.6059ZM192.842 17.8845C194.42 17.8845 195.755 18.4697 196.9 19.6951L198.361 18.3298C196.855 16.7178 194.998 15.8845 192.842 15.8845V17.8845ZM198.63 19.0125V18.3125H196.63V19.0125H198.63ZM198.63 18.3125C198.63 18.2131 198.653 18.1718 198.701 18.1236L197.287 16.7093C196.85 17.1465 196.63 17.7025 196.63 18.3125H198.63ZM198.727 18.0969C198.782 18.0381 198.816 18.0245 198.89 18.0245V16.0245C198.256 16.0245 197.692 16.2722 197.262 16.736L198.727 18.0969ZM198.89 18.0245C198.965 18.0245 198.999 18.0381 199.054 18.0969L200.519 16.736C200.088 16.2722 199.525 16.0245 198.89 16.0245V18.0245ZM199.106 18.1493C199.165 18.2039 199.178 18.2376 199.178 18.3125H201.178C201.178 17.678 200.931 17.1144 200.467 16.6837L199.106 18.1493ZM199.178 18.3125V30.8285H201.178V18.3125H199.178ZM199.178 30.8285C199.178 33.0279 198.647 34.5664 197.726 35.5927L199.215 36.9282C200.571 35.4158 201.178 33.3331 201.178 30.8285H199.178ZM197.726 35.5927C196.821 36.602 195.496 37.1645 193.598 37.1645V39.1645C195.919 39.1645 197.843 38.4576 199.215 36.9282L197.726 35.5927ZM193.374 30.1205C194.397 30.1205 195.344 29.9015 196.184 29.4346L195.213 27.6863C194.709 27.966 194.106 28.1205 193.374 28.1205V30.1205ZM196.184 29.4346C196.953 29.0072 197.674 28.4395 198.348 27.7449L196.913 26.352C196.355 26.9267 195.787 27.367 195.213 27.6863L196.184 29.4346ZM198.63 27.0485V21.2805H196.63V27.0485H198.63ZM198.348 20.584C197.674 19.8894 196.953 19.3217 196.184 18.8943L195.213 20.6426C195.787 20.9619 196.355 21.4022 196.913 21.9769L198.348 20.584ZM196.184 18.8943C195.344 18.4274 194.397 18.2085 193.374 18.2085V20.2085C194.106 20.2085 194.709 20.3629 195.213 20.6426L196.184 18.8943ZM193.374 18.2085C191.752 18.2085 190.345 18.7141 189.238 19.7745L190.622 21.2184C191.308 20.5615 192.196 20.2085 193.374 20.2085V18.2085ZM189.239 19.7741C188.107 20.8579 187.614 22.3779 187.614 24.1645H189.614C189.614 22.7403 189.999 21.815 190.622 21.2188L189.239 19.7741ZM187.614 24.1645C187.614 25.9524 188.107 27.4755 189.231 28.5751L190.63 27.1458C189.999 26.5281 189.614 25.5872 189.614 24.1645H187.614ZM189.246 28.59C190.354 29.6283 191.759 30.1205 193.374 30.1205V28.1205C192.19 28.1205 191.299 27.7726 190.614 27.1309L189.246 28.59Z" fill="#111111"/>
</svg>
